ffmpeg started on 2016-12-01 at 07:56:20
Report written to "Output/x264/results/ffmpeg/old_town_cross_2160p50medium10000k.log"
Command line:
Tools/ffmpeg/ffmpeg -benchmark -y -i Input/y4m/old_town_cross_2160p50.y4m -c:v libx264 -preset medium -b:v 10000k -an Output/x264/encoded/old_town_cross_2160p50medium10000k.mkv
ffmpeg version N-82227-gdb23fde Copyright (c) 2000-2016 the FFmpeg developers
  built with gcc 5.4.0 (Ubuntu 5.4.0-6ubuntu1~16.04.2) 20160609
  configuration: --prefix=/home/jaroslav/ffmpeg_build --pkg-config-flags=--static --extra-cflags=-I/home/jaroslav/ffmpeg_build/include --extra-ldflags=-L/home/jaroslav/ffmpeg_build/lib --bindir=/home/jaroslav/bin --enable-gpl --enable-libass --enable-libfdk-aac --enable-libfreetype --enable-libmp3lame --enable-libopus --enable-libtheora --enable-libvorbis --enable-libvpx --enable-libx264 --enable-libx265 --enable-nvenc --enable-libmfx --enable-libxvid --enable-libgsm --enable-libopencore-amrnb --enable-version3 --enable-nonfree
  libavutil      55. 35.100 / 55. 35.100
  libavcodec     57. 66.101 / 57. 66.101
  libavformat    57. 57.100 / 57. 57.100
  libavdevice    57.  2.100 / 57.  2.100
  libavfilter     6. 66.100 /  6. 66.100
  libswscale      4.  3.100 /  4.  3.100
  libswresample   2.  4.100 /  2.  4.100
  libpostproc    54.  2.100 / 54.  2.100
Input #0, yuv4mpegpipe, from 'Input/y4m/old_town_cross_2160p50.y4m':
  Duration: 00:00:10.00, start: 0.000000, bitrate: 4976642 kb/s
    Stream #0:0: Video: rawvideo (I420 / 0x30323449), yuv420p(progressive), 3840x2160, SAR 1:1 DAR 16:9, 50 fps, 50 tbr, 50 tbn, 50 tbc
[libx264 @ 0x3552120] using SAR=1/1
[libx264 @ 0x3552120] using cpu capabilities: MMX2 SSE2Fast SSSE3 SSE4.2 AVX FMA3 AVX2 LZCNT BMI2
[libx264 @ 0x3552120] profile High, level 5.2
[libx264 @ 0x3552120] 264 - core 148 - H.264/MPEG-4 AVC codec - Copyleft 2003-2016 - http://www.videolan.org/x264.html - options: cabac=1 ref=3 deblock=1:0:0 analyse=0x3:0x113 me=hex subme=7 psy=1 psy_rd=1.00:0.00 mixed_ref=1 me_range=16 chroma_me=1 trellis=1 8x8dct=1 cqm=0 deadzone=21,11 fast_pskip=1 chroma_qp_offset=-2 threads=6 lookahead_threads=1 sliced_threads=0 nr=0 decimate=1 interlaced=0 bluray_compat=0 constrained_intra=0 bframes=3 b_pyramid=2 b_adapt=1 b_bias=0 direct=1 weightb=1 open_gop=0 weightp=2 keyint=250 keyint_min=25 scenecut=40 intra_refresh=0 rc_lookahead=40 rc=abr mbtree=1 bitrate=10000 ratetol=1.0 qcomp=0.60 qpmin=0 qpmax=69 qpstep=4 ip_ratio=1.40 aq=1:1.00
Output #0, matroska, to 'Output/x264/encoded/old_town_cross_2160p50medium10000k.mkv':
  Metadata:
    encoder         : Lavf57.57.100
    Stream #0:0: Video: h264 (libx264) (H264 / 0x34363248), yuv420p, 3840x2160 [SAR 1:1 DAR 16:9], q=-1--1, 10000 kb/s, 50 fps, 1k tbn, 50 tbc
    Metadata:
      encoder         : Lavc57.66.101 libx264
    Side data:
      cpb: bitrate max/min/avg: 0/0/10000000 buffer size: 0 vbv_delay: -1
Stream mapping:
  Stream #0:0 -> #0:0 (rawvideo (native) -> h264 (libx264))
Press [q] to stop, [?] for help
frame=   47 fps= 19 q=0.0 size=       0kB time=00:00:00.00 bitrate=N/A speed=   0x    frame=   54 fps= 17 q=34.0 size=       1kB time=00:00:00.02 bitrate= 279.6kbits/s speed=0.00664x    frame=   62 fps= 17 q=43.0 size=       1kB time=00:00:00.18 bitrate=  32.4kbits/s speed=0.0491x    frame=   70 fps= 17 q=39.0 size=       1kB time=00:00:00.34 bitrate=  17.2kbits/s speed=0.0804x    frame=   77 fps= 16 q=38.0 size=       1kB time=00:00:00.48 bitrate=  12.2kbits/s speed=0.101x    frame=   82 fps= 16 q=36.0 size=       1kB time=00:00:00.58 bitrate=  10.1kbits/s speed=0.11x    frame=   90 fps= 15 q=36.0 size=       1kB time=00:00:00.74 bitrate=   7.9kbits/s speed=0.124x    frame=   98 fps= 15 q=35.0 size=       1kB time=00:00:00.90 bitrate=   6.5kbits/s speed=0.135x    frame=  106 fps= 14 q=35.0 size=       1kB time=00:00:01.06 bitrate=   5.5kbits/s speed=0.143x    frame=  113 fps= 14 q=35.0 size=       1kB time=00:00:01.20 bitrate=   4.9kbits/s speed=0.15x    frame=  121 fps= 14 q=34.0 size=       1kB time=00:00:01.36 bitrate=   4.3kbits/s speed=0.158x    frame=  126 fps= 14 q=34.0 size=       1kB time=00:00:01.46 bitrate=   4.0kbits/s speed=0.159x    frame=  131 fps= 13 q=34.0 size=       1kB time=00:00:01.56 bitrate=   3.8kbits/s speed=0.161x    frame=  138 fps= 13 q=34.0 size=       1kB time=00:00:01.70 bitrate=   3.5kbits/s speed=0.165x    frame=  145 fps= 13 q=34.0 size=       1kB time=00:00:01.84 bitrate=   3.2kbits/s speed=0.167x    frame=  153 fps= 13 q=34.0 size=       1kB time=00:00:02.00 bitrate=   2.9kbits/s speed=0.17x    frame=  161 fps= 13 q=34.0 size=       1kB time=00:00:02.16 bitrate=   2.7kbits/s speed=0.175x    frame=  166 fps= 13 q=34.0 size=       1kB time=00:00:02.26 bitrate=   2.6kbits/s speed=0.175x    frame=  174 fps= 13 q=34.0 size=       1kB time=00:00:02.42 bitrate=   2.4kbits/s speed=0.178x    frame=  181 fps= 13 q=34.0 size=       1kB time=00:00:02.56 bitrate=   2.3kbits/s speed=0.179x    frame=  189 fps= 13 q=34.0 size=       1kB time=00:00:02.72 bitrate=   2.2kbits/s speed=0.182x    frame=  196 fps= 13 q=34.0 size=       1kB time=00:00:02.86 bitrate=   2.1kbits/s speed=0.183x    frame=  202 fps= 12 q=34.0 size=       1kB time=00:00:02.98 bitrate=   2.0kbits/s speed=0.184x    frame=  207 fps= 12 q=34.0 size=       1kB time=00:00:03.08 bitrate=   1.9kbits/s speed=0.184x    frame=  213 fps= 12 q=34.0 size=       1kB time=00:00:03.20 bitrate=   1.8kbits/s speed=0.186x    frame=  220 fps= 12 q=34.0 size=       1kB time=00:00:03.34 bitrate=   1.8kbits/s speed=0.188x    frame=  225 fps= 12 q=34.0 size=       1kB time=00:00:03.44 bitrate=   1.7kbits/s speed=0.187x    frame=  231 fps= 12 q=34.0 size=       1kB time=00:00:03.56 bitrate=   1.6kbits/s speed=0.188x    frame=  237 fps= 12 q=34.0 size=       1kB time=00:00:03.68 bitrate=   1.6kbits/s speed=0.188x    frame=  244 fps= 12 q=34.0 size=       1kB time=00:00:03.82 bitrate=   1.5kbits/s speed=0.19x    frame=  250 fps= 12 q=34.0 size=       1kB time=00:00:03.94 bitrate=   1.5kbits/s speed=0.19x    frame=  255 fps= 12 q=34.0 size=       1kB time=00:00:04.04 bitrate=   1.5kbits/s speed=0.19x    frame=  261 fps= 12 q=34.0 size=       1kB time=00:00:04.16 bitrate=   1.4kbits/s speed=0.191x    frame=  262 fps= 12 q=34.0 size=       1kB time=00:00:04.18 bitrate=   1.4kbits/s speed=0.185x    frame=  263 fps= 11 q=34.0 size=       1kB time=00:00:04.20 bitrate=   1.4kbits/s speed=0.181x    frame=  265 fps= 11 q=34.0 size=       1kB time=00:00:04.24 bitrate=   1.4kbits/s speed=0.177x    frame=  270 fps= 11 q=34.0 size=       1kB time=00:00:04.34 bitrate=   1.4kbits/s speed=0.176x    frame=  275 fps= 11 q=34.0 size=    5136kB time=00:00:04.44 bitrate=9474.7kbits/s speed=0.176x    frame=  280 fps= 11 q=34.0 size=    5136kB time=00:00:04.54 bitrate=9266.1kbits/s speed=0.175x    frame=  285 fps= 11 q=34.0 size=    5136kB time=00:00:04.64 bitrate=9066.4kbits/s speed=0.175x    frame=  290 fps= 11 q=34.0 size=    5136kB time=00:00:04.74 bitrate=8875.2kbits/s speed=0.175x    frame=  295 fps= 11 q=31.0 size=    5136kB time=00:00:04.84 bitrate=8691.9kbits/s speed=0.175x    frame=  301 fps= 11 q=35.0 size=    5967kB time=00:00:04.96 bitrate=9853.6kbits/s speed=0.175x    frame=  307 fps= 11 q=35.0 size=    5967kB time=00:00:05.08 bitrate=9620.9kbits/s speed=0.176x    frame=  315 fps= 11 q=35.0 size=    5967kB time=00:00:05.24 bitrate=9327.1kbits/s speed=0.176x    frame=  321 fps= 11 q=35.0 size=    5967kB time=00:00:05.36 bitrate=9118.4kbits/s speed=0.177x    frame=  327 fps= 11 q=35.0 size=    5967kB time=00:00:05.48 bitrate=8918.7kbits/s speed=0.178x    frame=  334 fps= 11 q=35.0 size=    5967kB time=00:00:05.62 bitrate=8696.6kbits/s speed=0.18x    frame=  339 fps= 11 q=35.0 size=    5967kB time=00:00:05.72 bitrate=8544.6kbits/s speed=0.18x    frame=  344 fps= 11 q=35.0 size=    5967kB time=00:00:05.82 bitrate=8397.8kbits/s speed=0.18x    frame=  350 fps= 11 q=35.0 size=    5967kB time=00:00:05.94 bitrate=8228.2kbits/s speed=0.181x    frame=  355 fps= 11 q=35.0 size=    5967kB time=00:00:06.04 bitrate=8092.0kbits/s speed=0.181x    frame=  363 fps= 11 q=34.0 size=    5967kB time=00:00:06.20 bitrate=7883.2kbits/s speed=0.182x    frame=  370 fps= 11 q=34.0 size=    5967kB time=00:00:06.34 bitrate=7709.1kbits/s speed=0.183x    frame=  378 fps= 11 q=34.0 size=    5967kB time=00:00:06.50 bitrate=7519.4kbits/s speed=0.184x    frame=  385 fps= 11 q=34.0 size=    5967kB time=00:00:06.64 bitrate=7360.9kbits/s speed=0.185x    frame=  389 fps= 11 q=34.0 size=    5967kB time=00:00:06.72 bitrate=7273.3kbits/s speed=0.185x    frame=  395 fps= 11 q=34.0 size=    5967kB time=00:00:06.84 bitrate=7145.7kbits/s speed=0.185x    frame=  402 fps= 11 q=34.0 size=    5967kB time=00:00:06.98 bitrate=7002.4kbits/s speed=0.185x    frame=  409 fps= 11 q=34.0 size=    5967kB time=00:00:07.12 bitrate=6864.7kbits/s speed=0.187x    frame=  416 fps= 11 q=34.0 size=    5967kB time=00:00:07.26 bitrate=6732.3kbits/s speed=0.187x    frame=  419 fps= 11 q=34.0 size=    5967kB time=00:00:07.32 bitrate=6677.2kbits/s speed=0.186x    frame=  426 fps= 11 q=34.0 size=    5967kB time=00:00:07.46 bitrate=6551.9kbits/s speed=0.187x    frame=  432 fps= 11 q=34.0 size=    5967kB time=00:00:07.58 bitrate=6448.2kbits/s speed=0.188x    frame=  439 fps= 11 q=34.0 size=    5967kB time=00:00:07.72 bitrate=6331.2kbits/s speed=0.188x    frame=  446 fps= 11 q=34.0 size=    5967kB time=00:00:07.86 bitrate=6218.5kbits/s speed=0.188x    frame=  454 fps= 11 q=34.0 size=    5967kB time=00:00:08.02 bitrate=6094.4kbits/s speed=0.189x    frame=  462 fps= 11 q=34.0 size=    5967kB time=00:00:08.18 bitrate=5975.3kbits/s speed=0.19x    frame=  468 fps= 11 q=34.0 size=    5967kB time=00:00:08.30 bitrate=5888.9kbits/s speed=0.19x    frame=  472 fps= 11 q=34.0 size=    5967kB time=00:00:08.38 bitrate=5832.7kbits/s speed=0.19x    frame=  478 fps= 11 q=34.0 size=    5967kB time=00:00:08.50 bitrate=5750.3kbits/s speed=0.191x    frame=  483 fps= 11 q=34.0 size=    5967kB time=00:00:08.60 bitrate=5683.5kbits/s speed=0.191x    frame=  490 fps= 11 q=34.0 size=    5967kB time=00:00:08.74 bitrate=5592.4kbits/s speed=0.191x    frame=  496 fps= 11 q=34.0 size=    5967kB time=00:00:08.86 bitrate=5516.7kbits/s speed=0.191x    frame=  500 fps=9.6 q=-1.0 Lsize=   12306kB time=00:00:09.94 bitrate=10141.2kbits/s speed=0.192x    
video:12302kB audio:0kB subtitle:0kB other streams:0kB global headers:0kB muxing overhead: 0.037255%
bench: utime=182.752s
bench: maxrss=1924268kB
[libx264 @ 0x3552120] frame I:3     Avg QP:29.83  size:378471
[libx264 @ 0x3552120] frame P:183   Avg QP:32.27  size: 36358
[libx264 @ 0x3552120] frame B:314   Avg QP:33.97  size: 15310
[libx264 @ 0x3552120] consecutive B-frames: 16.0%  0.8%  0.0% 83.2%
[libx264 @ 0x3552120] mb I  I16..4:  5.7% 80.0% 14.3%
[libx264 @ 0x3552120] mb P  I16..4:  0.0%  0.3%  0.0%  P16..4: 35.4%  2.1%  2.2%  0.0%  0.0%    skip:60.0%
[libx264 @ 0x3552120] mb B  I16..4:  0.0%  0.0%  0.0%  B16..8: 41.0%  0.1%  0.0%  direct: 0.0%  skip:58.8%  L0:47.8% L1:52.1% BI: 0.0%
[libx264 @ 0x3552120] final ratefactor: 26.30
[libx264 @ 0x3552120] 8x8 transform intra:80.5% inter:92.0%
[libx264 @ 0x3552120] coded y,uvDC,uvAC intra: 70.8% 73.5% 51.5% inter: 5.8% 5.7% 0.0%
[libx264 @ 0x3552120] i16 v,h,dc,p: 27% 33% 18% 22%
[libx264 @ 0x3552120] i8 v,h,dc,ddl,ddr,vr,hd,vl,hu: 16% 19% 28%  5%  6%  5%  8%  5%  7%
[libx264 @ 0x3552120] i4 v,h,dc,ddl,ddr,vr,hd,vl,hu: 21% 26% 13%  7%  7%  6%  9%  5%  7%
[libx264 @ 0x3552120] i8c dc,h,v,p: 63% 18% 15%  4%
[libx264 @ 0x3552120] Weighted P-Frames: Y:0.5% UV:0.0%
[libx264 @ 0x3552120] ref P L0: 54.8% 30.5% 11.5%  3.2%  0.0%
[libx264 @ 0x3552120] ref B L0: 87.8% 10.3%  1.9%
[libx264 @ 0x3552120] ref B L1: 94.8%  5.2%
[libx264 @ 0x3552120] kb/s:10077.03
